<svg id="Layer_1" data-name="Layer 1" xmlns="http://www.w3.org/2000/svg" viewBox="0 0 499 190.51"><defs><style>.cls-1{font-size:32.43px;fill:#7e8287;font-family:Thrillers-Black, Thrillers;font-weight:800;}.cls-2{letter-spacing:-0.02em;}.cls-3{letter-spacing:-0.01em;}.cls-4,.cls-5{fill:#392759;stroke:#fff;stroke-miterlimit:10;}.cls-4{stroke-width:3px;}.cls-5{stroke-width:5px;}</style></defs><text class="cls-1" transform="translate(18.48 27.63) scale(0.86 1)"><tspan class="cls-2">p</tspan><tspan x="15.73" y="0">alind</tspan><tspan class="cls-3" x="80.2" y="0">r</tspan><tspan x="91.39" y="0">ome</tspan></text><path class="cls-4" d="M71.76,291c-14.86,0-29.71-6.53-37.32-19.8l-9.84,16h-18V236.07h6.49l30.46,21.48,1.85-3.37-26-18.11c-8.17-5-16.9-15.58-16.9-33.48,0-26.33,21.17-40.23,42.89-40.23,14.49,0,29.15,5.9,38.07,19.38l9.84-16.22h18V214.8h-5.94l-31-21.27L72.5,196.9l26,17.9c9.28,5.69,17.08,17.06,17.08,34.75C115.58,277.14,93.67,291,71.76,291Z" transform="translate(-1 -135.04)"/><path class="cls-4" d="M176.93,287l-8.73-11.8h-1.11a48.23,48.23,0,0,1-34.35,15c-23,0-33.06-16.64-33.06-34.75,0-23.17,10.59-34.54,41.6-34.54h18.57V185.53H156.5v31.8h-15c-16.34,0-26.92,3.58-34.35,8.21V174.16c11.14-6.11,34.91-11.8,50.51-11.8,14.67,0,59.23,3.58,59.23,47.39V243h8.36v44Zm-17.08-27.17V242.6H156.5v17.27Z" transform="translate(-1 -135.04)"/><path class="cls-4" d="M258.57,248.24c49.57,0,43.26-36.22,56.26-36.22h5.38V170.67a5,5,0,0,1-1.84.33,4.91,4.91,0,0,1-.55,0,4.95,4.95,0,0,1-7.36,0,24.27,24.27,0,0,1-5,3.4,4.54,4.54,0,0,1-3.91,1.94,4.92,4.92,0,0,1-2.42-.59,51.41,51.41,0,0,0-1,5.81c-9.84-16.22-36-17.69-44.75-17.69-35.47,0-57.19,15.37-57.19,42.75,0,19.38,7.43,26.33,12.62,30.12v4.21c-8.35,4.21-12.62,15.79-12.62,25.9,0,22.75,27.66,32.43,54.59,32.43,18.38,0,35.65-4.21,45.31-12.21v4.21c-10.4,7.58-28.41,11.58-45.5,11.58-16.71,0-38.25-5-48.65-14.95-4.45,2.53-5.75,8-5.75,10.95,0,17.48,25.81,25.27,57.75,25.27s64.61-10.1,64.61-50.33c0-13.9-2.41-29.06-13.55-39-13.93,12.64-31,17.06-46.79,17.06-12.44,0-26-3.16-33.06-6.32v-3.16C233.87,245.29,247.43,248.24,258.57,248.24Zm-6.5-64h3.34V229.5h-3.34Z" transform="translate(-1 -135.04)"/><path class="cls-4" d="M360.88,294.17l-8.72-11.79H351a48.22,48.22,0,0,1-34.35,14.95c-23,0-33.05-16.64-33.05-34.75,0-23.17,10.58-34.54,41.59-34.54H343.8V192.66h-3.34v31.8h-15c-16.34,0-26.92,3.58-34.35,8.21V181.29c11.14-6.11,34.91-11.79,50.5-11.79,14.67,0,59.24,3.58,59.24,47.38v33.27h8.35v44ZM343.8,267V249.73h-3.34V267Z" transform="translate(-1 -135.04)"/><path class="cls-5" d="M453.68,298.17c-14.85,0-29.71-6.53-37.32-19.8l-9.84,16h-18V243.2H395l30.46,21.49,1.85-3.38-26-18.11c-8.17-5-16.9-15.58-16.9-33.48,0-26.33,21.17-40.22,42.89-40.22,14.49,0,29.15,5.89,38.07,19.37l9.84-16.22h18v49.28h-5.94l-31-21.27L454.42,204l26,17.9c9.28,5.69,17.08,17.06,17.08,34.75C497.5,284.27,475.59,298.17,453.68,298.17Z" transform="translate(-1 -135.04)"/></svg>